<svg width="391" height="266" viewBox="0 0 391 266" fill="none" xmlns="http://www.w3.org/2000/svg">
<path d="M8.44807 223.702V194.77H27.6044V199.813H14.5651V206.707H26.333V211.75H14.5651V223.702H8.44807ZM31.719 223.702V194.77H43.1337C45.3187 194.77 47.1835 195.161 48.728 195.942C50.282 196.715 51.464 197.812 52.2739 199.234C53.0933 200.647 53.503 202.309 53.503 204.221C53.503 206.142 53.0886 207.795 52.2598 209.179C51.431 210.554 50.2302 211.609 48.6574 212.344C47.094 213.078 45.201 213.446 42.9783 213.446H35.3355V208.529H41.9894C43.1572 208.529 44.1273 208.369 44.8996 208.049C45.6719 207.729 46.2464 207.249 46.6231 206.608C47.0092 205.968 47.2023 205.172 47.2023 204.221C47.2023 203.26 47.0092 202.45 46.6231 201.791C46.2464 201.132 45.6672 200.632 44.8855 200.293C44.1132 199.945 43.1384 199.771 41.9611 199.771H37.836V223.702H31.719ZM47.3436 210.536L54.5343 223.702H47.7815L40.7462 210.536H47.3436ZM57.8259 223.702V194.77H77.3213V199.813H63.9429V206.707H76.3183V211.75H63.9429V218.659H77.3778V223.702H57.8259ZM82.1846 223.702V194.77H101.68V199.813H88.3016V206.707H100.677V211.75H88.3016V218.659H101.737V223.702H82.1846ZM306.802 203.811H303.299C303.092 202.803 302.729 201.918 302.211 201.155C301.702 200.392 301.081 199.752 300.346 199.234C299.621 198.706 298.816 198.311 297.93 198.047C297.045 197.783 296.122 197.652 295.162 197.652C293.41 197.652 291.823 198.094 290.401 198.98C288.988 199.865 287.863 201.169 287.024 202.893C286.196 204.616 285.781 206.731 285.781 209.236C285.781 211.741 286.196 213.855 287.024 215.579C287.863 217.302 288.988 218.607 290.401 219.492C291.823 220.377 293.41 220.82 295.162 220.82C296.122 220.82 297.045 220.688 297.93 220.425C298.816 220.161 299.621 219.77 300.346 219.252C301.081 218.725 301.702 218.079 302.211 217.317C302.729 216.544 303.092 215.659 303.299 214.661H306.802C306.539 216.139 306.058 217.463 305.361 218.63C304.664 219.798 303.798 220.792 302.762 221.611C301.726 222.421 300.563 223.038 299.273 223.462C297.992 223.886 296.621 224.098 295.162 224.098C292.694 224.098 290.5 223.495 288.578 222.289C286.657 221.084 285.145 219.37 284.044 217.147C282.942 214.924 282.391 212.287 282.391 209.236C282.391 206.184 282.942 203.547 284.044 201.325C285.145 199.102 286.657 197.388 288.578 196.182C290.5 194.977 292.694 194.374 295.162 194.374C296.621 194.374 297.992 194.586 299.273 195.01C300.563 195.434 301.726 196.055 302.762 196.875C303.798 197.685 304.664 198.673 305.361 199.841C306.058 201 306.539 202.323 306.802 203.811ZM313.65 223.702H309.977L320.601 194.77H324.218L334.841 223.702H331.168L322.522 199.347H322.296L313.65 223.702ZM315.007 212.4H329.812V215.508H315.007V212.4ZM339.348 223.702V194.77H349.124C351.384 194.77 353.239 195.156 354.69 195.928C356.14 196.691 357.214 197.741 357.911 199.078C358.608 200.416 358.956 201.937 358.956 203.642C358.956 205.346 358.608 206.858 357.911 208.176C357.214 209.495 356.145 210.531 354.704 211.284C353.263 212.028 351.422 212.4 349.18 212.4H341.269V209.236H349.067C350.612 209.236 351.855 209.01 352.797 208.558C353.748 208.106 354.435 207.465 354.859 206.636C355.292 205.798 355.509 204.8 355.509 203.642C355.509 202.483 355.292 201.471 354.859 200.604C354.426 199.738 353.734 199.069 352.783 198.598C351.831 198.118 350.574 197.878 349.011 197.878H342.851V223.702H339.348ZM352.966 210.705L360.086 223.702H356.018L349.011 210.705H352.966ZM364.794 223.702V194.77H382.255V197.878H368.298V207.654H381.351V210.762H368.298V220.594H382.481V223.702H364.794Z" fill="#2D435A"/>
<path d="M118.721 223.702V194.77H122.224V207.654H137.651V194.77H141.155V223.702H137.651V210.762H122.224V223.702H118.721ZM148.169 223.702V194.77H165.63V197.878H151.672V207.654H164.726V210.762H151.672V220.594H165.856V223.702H148.169ZM173.131 223.702H169.458L180.082 194.77H183.699L194.322 223.702H190.649L182.003 199.347H181.777L173.131 223.702ZM174.488 212.4H189.293V215.508H174.488V212.4ZM198.829 223.702V194.77H202.332V220.594H215.781V223.702H198.829ZM215.778 197.878V194.77H237.477V197.878H228.379V223.702H224.876V197.878H215.778ZM242.884 223.702V194.77H246.388V207.654H261.814V194.77H265.318V223.702H261.814V210.762H246.388V223.702H242.884Z" fill="#5053EB"/>
<path d="M75.4187 260.385V244.679H80.9097C82.0038 244.679 82.9062 244.868 83.6168 245.247C84.3275 245.62 84.8566 246.123 85.2043 246.757C85.552 247.386 85.7258 248.084 85.7258 248.851C85.7258 249.526 85.6057 250.083 85.3654 250.523C85.1302 250.963 84.8183 251.31 84.4297 251.566C84.0463 251.821 83.6296 252.011 83.1797 252.133V252.287C83.6603 252.317 84.1434 252.486 84.6291 252.793C85.1148 253.1 85.5213 253.539 85.8485 254.112C86.1757 254.685 86.3393 255.385 86.3393 256.213C86.3393 257.001 86.1604 257.709 85.8025 258.338C85.4446 258.966 84.8797 259.465 84.1076 259.833C83.3356 260.201 82.331 260.385 81.0937 260.385H75.4187ZM77.3206 258.698H81.0937C82.3361 258.698 83.218 258.458 83.7395 257.977C84.2661 257.491 84.5294 256.903 84.5294 256.213C84.5294 255.682 84.394 255.191 84.123 254.741C83.852 254.286 83.466 253.923 82.965 253.652C82.4639 253.376 81.8708 253.238 81.1857 253.238H77.3206V258.698ZM77.3206 251.581H80.8483C81.4209 251.581 81.9373 251.469 82.3975 251.244C82.8627 251.019 83.2308 250.702 83.5018 250.293C83.7779 249.884 83.9159 249.403 83.9159 248.851C83.9159 248.161 83.6756 247.575 83.195 247.095C82.7144 246.609 81.9526 246.366 80.9097 246.366H77.3206V251.581ZM90.3847 264.803C90.078 264.803 89.8044 264.777 89.5641 264.726C89.3238 264.68 89.1577 264.634 89.0657 264.588L89.5258 262.993C89.9655 263.105 90.3541 263.146 90.6915 263.115C91.0289 263.085 91.328 262.934 91.5888 262.663C91.8546 262.397 92.0975 261.965 92.3173 261.367L92.6548 260.447L88.2988 248.606H90.262L93.5137 257.992H93.6364L96.888 248.606H98.8513L93.8511 262.103C93.6262 262.711 93.3475 263.215 93.0152 263.614C92.6829 264.018 92.2969 264.317 91.8572 264.511C91.4226 264.705 90.9318 264.803 90.3847 264.803ZM116.149 248.606C116.057 247.828 115.684 247.225 115.029 246.796C114.375 246.366 113.572 246.151 112.621 246.151C111.926 246.151 111.317 246.264 110.796 246.489C110.279 246.714 109.876 247.023 109.584 247.417C109.298 247.811 109.155 248.258 109.155 248.759C109.155 249.178 109.254 249.539 109.454 249.84C109.658 250.137 109.919 250.385 110.236 250.584C110.553 250.778 110.885 250.939 111.233 251.067C111.581 251.19 111.9 251.29 112.192 251.366L113.787 251.796C114.196 251.903 114.651 252.052 115.152 252.241C115.658 252.43 116.141 252.688 116.601 253.015C117.066 253.337 117.45 253.751 117.752 254.258C118.053 254.764 118.204 255.385 118.204 256.121C118.204 256.97 117.982 257.737 117.537 258.422C117.097 259.107 116.453 259.651 115.604 260.055C114.761 260.459 113.736 260.661 112.529 260.661C111.404 260.661 110.43 260.48 109.607 260.117C108.789 259.754 108.145 259.248 107.675 258.598C107.209 257.949 106.946 257.195 106.885 256.336H108.848C108.899 256.929 109.098 257.42 109.446 257.808C109.799 258.192 110.244 258.478 110.78 258.667C111.322 258.851 111.905 258.943 112.529 258.943C113.255 258.943 113.907 258.826 114.485 258.591C115.062 258.35 115.52 258.018 115.857 257.594C116.195 257.164 116.363 256.663 116.363 256.091C116.363 255.569 116.218 255.145 115.926 254.817C115.635 254.49 115.251 254.224 114.776 254.02C114.301 253.815 113.787 253.636 113.235 253.483L111.302 252.931C110.075 252.578 109.103 252.075 108.388 251.42C107.672 250.766 107.314 249.909 107.314 248.851C107.314 247.972 107.552 247.205 108.027 246.55C108.508 245.891 109.152 245.379 109.96 245.016C110.773 244.648 111.68 244.464 112.682 244.464C113.695 244.464 114.595 244.646 115.382 245.009C116.169 245.367 116.793 245.858 117.253 246.481C117.718 247.105 117.964 247.813 117.989 248.606H116.149ZM125.871 260.631C124.808 260.631 123.875 260.377 123.072 259.871C122.274 259.365 121.651 258.657 121.201 257.747C120.756 256.837 120.534 255.774 120.534 254.557C120.534 253.33 120.756 252.259 121.201 251.343C121.651 250.428 122.274 249.718 123.072 249.211C123.875 248.705 124.808 248.452 125.871 248.452C126.935 248.452 127.865 248.705 128.663 249.211C129.465 249.718 130.089 250.428 130.534 251.343C130.984 252.259 131.209 253.33 131.209 254.557C131.209 255.774 130.984 256.837 130.534 257.747C130.089 258.657 129.465 259.365 128.663 259.871C127.865 260.377 126.935 260.631 125.871 260.631ZM125.871 259.005C126.679 259.005 127.344 258.798 127.865 258.384C128.387 257.969 128.773 257.425 129.023 256.75C129.274 256.075 129.399 255.344 129.399 254.557C129.399 253.769 129.274 253.036 129.023 252.356C128.773 251.676 128.387 251.126 127.865 250.707C127.344 250.288 126.679 250.078 125.871 250.078C125.063 250.078 124.399 250.288 123.877 250.707C123.356 251.126 122.97 251.676 122.719 252.356C122.469 253.036 122.343 253.769 122.343 254.557C122.343 255.344 122.469 256.075 122.719 256.75C122.97 257.425 123.356 257.969 123.877 258.384C124.399 258.798 125.063 259.005 125.871 259.005ZM139.217 248.606V250.139H132.867V248.606H139.217ZM134.769 260.385V246.98C134.769 246.305 134.928 245.742 135.245 245.293C135.562 244.843 135.973 244.505 136.479 244.28C136.985 244.055 137.52 243.943 138.082 243.943C138.527 243.943 138.89 243.979 139.171 244.05C139.452 244.122 139.662 244.188 139.8 244.25L139.278 245.814C139.186 245.783 139.059 245.745 138.895 245.699C138.737 245.653 138.527 245.63 138.266 245.63C137.668 245.63 137.236 245.781 136.97 246.082C136.709 246.384 136.579 246.826 136.579 247.409V260.385H134.769ZM146.877 248.606V250.139H140.772V248.606H146.877ZM142.551 245.783H144.361V257.011C144.361 257.522 144.435 257.906 144.584 258.161C144.737 258.412 144.931 258.58 145.166 258.667C145.407 258.749 145.66 258.79 145.926 258.79C146.125 258.79 146.289 258.78 146.416 258.759C146.544 258.734 146.647 258.713 146.723 258.698L147.091 260.324C146.969 260.37 146.797 260.416 146.577 260.462C146.358 260.513 146.079 260.539 145.742 260.539C145.23 260.539 144.729 260.429 144.238 260.209C143.753 259.989 143.349 259.654 143.027 259.204C142.71 258.754 142.551 258.187 142.551 257.502V245.783ZM150.098 260.385V244.679H159.515V246.366H151.999V251.673H158.81V253.36H151.999V260.385H150.098ZM164.337 244.679V260.385H162.527V244.679H164.337ZM171.118 260.661C170.372 260.661 169.694 260.521 169.086 260.239C168.478 259.953 167.994 259.542 167.637 259.005C167.279 258.463 167.1 257.808 167.1 257.041C167.1 256.367 167.233 255.82 167.499 255.4C167.764 254.976 168.12 254.644 168.565 254.403C169.009 254.163 169.5 253.984 170.037 253.867C170.579 253.744 171.123 253.647 171.67 253.575C172.386 253.483 172.967 253.414 173.411 253.368C173.861 253.317 174.188 253.233 174.393 253.115C174.603 252.997 174.707 252.793 174.707 252.501V252.44C174.707 251.683 174.5 251.095 174.086 250.676C173.677 250.257 173.056 250.047 172.223 250.047C171.359 250.047 170.681 250.237 170.19 250.615C169.7 250.993 169.354 251.397 169.155 251.827L167.437 251.213C167.744 250.497 168.153 249.94 168.664 249.541C169.181 249.137 169.743 248.856 170.351 248.698C170.965 248.534 171.568 248.452 172.161 248.452C172.54 248.452 172.974 248.498 173.465 248.59C173.961 248.677 174.439 248.859 174.899 249.135C175.364 249.411 175.75 249.827 176.057 250.385C176.364 250.942 176.517 251.689 176.517 252.624V260.385H174.707V258.79H174.615C174.493 259.046 174.288 259.319 174.002 259.611C173.716 259.902 173.335 260.15 172.859 260.354C172.384 260.559 171.803 260.661 171.118 260.661ZM171.394 259.035C172.11 259.035 172.713 258.895 173.204 258.614C173.7 258.332 174.073 257.969 174.324 257.525C174.58 257.08 174.707 256.612 174.707 256.121V254.465C174.631 254.557 174.462 254.641 174.201 254.718C173.946 254.789 173.649 254.853 173.312 254.909C172.979 254.961 172.655 255.007 172.338 255.048C172.026 255.083 171.773 255.114 171.578 255.14C171.108 255.201 170.668 255.301 170.259 255.439C169.855 255.572 169.528 255.774 169.278 256.045C169.032 256.31 168.91 256.673 168.91 257.134C168.91 257.762 169.142 258.238 169.608 258.56C170.078 258.877 170.674 259.035 171.394 259.035ZM179.821 260.385V248.606H181.569V250.446H181.723C181.968 249.817 182.364 249.329 182.911 248.981C183.458 248.629 184.115 248.452 184.882 248.452C185.659 248.452 186.306 248.629 186.823 248.981C187.344 249.329 187.75 249.817 188.042 250.446H188.165C188.466 249.838 188.919 249.355 189.522 248.997C190.125 248.634 190.849 248.452 191.692 248.452C192.746 248.452 193.607 248.782 194.277 249.441C194.947 250.096 195.281 251.116 195.281 252.501V260.385H193.472V252.501C193.472 251.632 193.234 251.011 192.758 250.638C192.283 250.265 191.723 250.078 191.079 250.078C190.251 250.078 189.609 250.329 189.154 250.83C188.699 251.326 188.471 251.954 188.471 252.716V260.385H186.631V252.317C186.631 251.648 186.414 251.108 185.979 250.699C185.544 250.285 184.985 250.078 184.299 250.078C183.829 250.078 183.389 250.203 182.98 250.454C182.576 250.704 182.249 251.052 181.999 251.497C181.753 251.936 181.631 252.445 181.631 253.023V260.385H179.821ZM203.529 260.631C202.394 260.631 201.415 260.38 200.592 259.879C199.774 259.373 199.143 258.667 198.698 257.762C198.258 256.852 198.038 255.794 198.038 254.587C198.038 253.381 198.258 252.317 198.698 251.397C199.143 250.472 199.761 249.751 200.554 249.234C201.351 248.713 202.282 248.452 203.345 248.452C203.959 248.452 204.565 248.554 205.163 248.759C205.761 248.963 206.306 249.296 206.796 249.756C207.287 250.211 207.678 250.814 207.97 251.566C208.261 252.317 208.407 253.243 208.407 254.342V255.109H199.327V253.544H206.566C206.566 252.88 206.433 252.287 206.168 251.765C205.907 251.244 205.534 250.832 205.048 250.53C204.567 250.229 204 250.078 203.345 250.078C202.625 250.078 202.001 250.257 201.474 250.615C200.953 250.968 200.551 251.428 200.27 251.995C199.989 252.563 199.848 253.171 199.848 253.82V254.863C199.848 255.753 200.002 256.507 200.308 257.126C200.62 257.739 201.052 258.207 201.605 258.529C202.157 258.846 202.798 259.005 203.529 259.005C204.005 259.005 204.434 258.938 204.818 258.805C205.206 258.667 205.541 258.463 205.822 258.192C206.104 257.916 206.321 257.573 206.474 257.164L208.223 257.655C208.039 258.248 207.73 258.77 207.295 259.219C206.86 259.664 206.324 260.012 205.684 260.262C205.045 260.508 204.327 260.631 203.529 260.631ZM219.504 251.244L217.878 251.704C217.776 251.433 217.625 251.17 217.426 250.914C217.231 250.653 216.966 250.438 216.628 250.27C216.291 250.101 215.859 250.017 215.332 250.017C214.611 250.017 214.01 250.183 213.53 250.515C213.054 250.842 212.817 251.259 212.817 251.765C212.817 252.215 212.98 252.57 213.307 252.831C213.635 253.092 214.146 253.309 214.841 253.483L216.59 253.913C217.643 254.168 218.428 254.559 218.944 255.086C219.461 255.607 219.719 256.28 219.719 257.103C219.719 257.778 219.524 258.381 219.136 258.913C218.752 259.444 218.216 259.864 217.525 260.17C216.835 260.477 216.032 260.631 215.117 260.631C213.916 260.631 212.921 260.37 212.134 259.848C211.347 259.327 210.848 258.565 210.639 257.563L212.356 257.134C212.52 257.767 212.829 258.243 213.284 258.56C213.745 258.877 214.345 259.035 215.087 259.035C215.93 259.035 216.6 258.856 217.096 258.499C217.597 258.136 217.847 257.701 217.847 257.195C217.847 256.786 217.704 256.443 217.418 256.167C217.132 255.886 216.692 255.676 216.099 255.538L214.136 255.078C213.057 254.823 212.264 254.426 211.758 253.89C211.257 253.348 211.007 252.67 211.007 251.857C211.007 251.193 211.193 250.605 211.567 250.093C211.945 249.582 212.459 249.181 213.108 248.889C213.762 248.598 214.504 248.452 215.332 248.452C216.498 248.452 217.413 248.708 218.078 249.219C218.747 249.73 219.223 250.405 219.504 251.244ZM229.407 244.679L234.069 257.9H234.253L238.916 244.679H240.91L235.143 260.385H233.18L227.413 244.679H229.407ZM246.953 260.631C245.818 260.631 244.839 260.38 244.016 259.879C243.198 259.373 242.567 258.667 242.122 257.762C241.682 256.852 241.462 255.794 241.462 254.587C241.462 253.381 241.682 252.317 242.122 251.397C242.567 250.472 243.185 249.751 243.978 249.234C244.775 248.713 245.706 248.452 246.769 248.452C247.383 248.452 247.989 248.554 248.587 248.759C249.185 248.963 249.729 249.296 250.22 249.756C250.711 250.211 251.102 250.814 251.394 251.566C251.685 252.317 251.831 253.243 251.831 254.342V255.109H242.751V253.544H249.99C249.99 252.88 249.857 252.287 249.591 251.765C249.331 251.244 248.957 250.832 248.472 250.53C247.991 250.229 247.424 250.078 246.769 250.078C246.048 250.078 245.425 250.257 244.898 250.615C244.377 250.968 243.975 251.428 243.694 251.995C243.413 252.563 243.272 253.171 243.272 253.82V254.863C243.272 255.753 243.426 256.507 243.732 257.126C244.044 257.739 244.476 258.207 245.028 258.529C245.581 258.846 246.222 259.005 246.953 259.005C247.429 259.005 247.858 258.938 248.242 258.805C248.63 258.667 248.965 258.463 249.246 258.192C249.528 257.916 249.745 257.573 249.898 257.164L251.647 257.655C251.463 258.248 251.153 258.77 250.719 259.219C250.284 259.664 249.747 260.012 249.108 260.262C248.469 260.508 247.751 260.631 246.953 260.631ZM256.394 253.299V260.385H254.584V248.606H256.332V250.446H256.486C256.762 249.848 257.181 249.367 257.744 249.004C258.306 248.636 259.032 248.452 259.922 248.452C260.719 248.452 261.417 248.616 262.015 248.943C262.613 249.265 263.079 249.756 263.411 250.415C263.743 251.07 263.909 251.898 263.909 252.9V260.385H262.1V253.023C262.1 252.098 261.859 251.377 261.379 250.86C260.898 250.339 260.239 250.078 259.4 250.078C258.822 250.078 258.306 250.203 257.851 250.454C257.401 250.704 257.046 251.07 256.785 251.55C256.524 252.031 256.394 252.614 256.394 253.299ZM272.34 248.606V250.139H266.235V248.606H272.34ZM268.014 245.783H269.824V257.011C269.824 257.522 269.898 257.906 270.047 258.161C270.2 258.412 270.394 258.58 270.629 258.667C270.87 258.749 271.123 258.79 271.389 258.79C271.588 258.79 271.752 258.78 271.88 258.759C272.007 258.734 272.11 258.713 272.186 258.698L272.554 260.324C272.432 260.37 272.26 260.416 272.041 260.462C271.821 260.513 271.542 260.539 271.205 260.539C270.693 260.539 270.192 260.429 269.702 260.209C269.216 259.989 268.812 259.654 268.49 259.204C268.173 258.754 268.014 258.187 268.014 257.502V245.783ZM282.486 255.569V248.606H284.296V260.385H282.486V258.391H282.363C282.087 258.989 281.657 259.498 281.075 259.917C280.492 260.331 279.756 260.539 278.866 260.539C278.13 260.539 277.475 260.377 276.903 260.055C276.33 259.728 275.88 259.237 275.553 258.583C275.226 257.923 275.062 257.093 275.062 256.091V248.606H276.872V255.968C276.872 256.827 277.112 257.512 277.593 258.023C278.079 258.534 278.697 258.79 279.449 258.79C279.899 258.79 280.356 258.675 280.822 258.445C281.292 258.215 281.686 257.862 282.003 257.387C282.325 256.911 282.486 256.305 282.486 255.569ZM287.611 260.385V248.606H289.359V250.385H289.482C289.697 249.802 290.085 249.329 290.647 248.966C291.21 248.603 291.844 248.422 292.549 248.422C292.682 248.422 292.848 248.424 293.048 248.429C293.247 248.434 293.398 248.442 293.5 248.452V250.293C293.439 250.277 293.298 250.254 293.079 250.224C292.864 250.188 292.636 250.17 292.396 250.17C291.823 250.17 291.312 250.29 290.862 250.53C290.417 250.766 290.065 251.093 289.804 251.512C289.548 251.926 289.42 252.399 289.42 252.931V260.385H287.611ZM300.226 260.631C299.091 260.631 298.112 260.38 297.289 259.879C296.471 259.373 295.839 258.667 295.395 257.762C294.955 256.852 294.735 255.794 294.735 254.587C294.735 253.381 294.955 252.317 295.395 251.397C295.839 250.472 296.458 249.751 297.251 249.234C298.048 248.713 298.979 248.452 300.042 248.452C300.656 248.452 301.261 248.554 301.86 248.759C302.458 248.963 303.002 249.296 303.493 249.756C303.984 250.211 304.375 250.814 304.666 251.566C304.958 252.317 305.104 253.243 305.104 254.342V255.109H296.023V253.544H303.263C303.263 252.88 303.13 252.287 302.864 251.765C302.603 251.244 302.23 250.832 301.745 250.53C301.264 250.229 300.696 250.078 300.042 250.078C299.321 250.078 298.697 250.257 298.171 250.615C297.649 250.968 297.248 251.428 296.967 251.995C296.686 252.563 296.545 253.171 296.545 253.82V254.863C296.545 255.753 296.698 256.507 297.005 257.126C297.317 257.739 297.749 258.207 298.301 258.529C298.853 258.846 299.495 259.005 300.226 259.005C300.702 259.005 301.131 258.938 301.514 258.805C301.903 258.667 302.238 258.463 302.519 258.192C302.8 257.916 303.018 257.573 303.171 257.164L304.92 257.655C304.735 258.248 304.426 258.77 303.992 259.219C303.557 259.664 303.02 260.012 302.381 260.262C301.742 260.508 301.024 260.631 300.226 260.631ZM316.201 251.244L314.575 251.704C314.473 251.433 314.322 251.17 314.122 250.914C313.928 250.653 313.662 250.438 313.325 250.27C312.987 250.101 312.555 250.017 312.029 250.017C311.308 250.017 310.707 250.183 310.226 250.515C309.751 250.842 309.513 251.259 309.513 251.765C309.513 252.215 309.677 252.57 310.004 252.831C310.331 253.092 310.843 253.309 311.538 253.483L313.286 253.913C314.34 254.168 315.124 254.559 315.641 255.086C316.157 255.607 316.415 256.28 316.415 257.103C316.415 257.778 316.221 258.381 315.833 258.913C315.449 259.444 314.912 259.864 314.222 260.17C313.532 260.477 312.729 260.631 311.814 260.631C310.612 260.631 309.618 260.37 308.831 259.848C308.043 259.327 307.545 258.565 307.335 257.563L309.053 257.134C309.217 257.767 309.526 258.243 309.981 258.56C310.441 258.877 311.042 259.035 311.783 259.035C312.627 259.035 313.297 258.856 313.793 258.499C314.294 258.136 314.544 257.701 314.544 257.195C314.544 256.786 314.401 256.443 314.115 256.167C313.828 255.886 313.389 255.676 312.796 255.538L310.832 255.078C309.754 254.823 308.961 254.426 308.455 253.89C307.954 253.348 307.703 252.67 307.703 251.857C307.703 251.193 307.89 250.605 308.263 250.093C308.642 249.582 309.155 249.181 309.805 248.889C310.459 248.598 311.2 248.452 312.029 248.452C313.194 248.452 314.11 248.708 314.774 249.219C315.444 249.73 315.919 250.405 316.201 251.244Z" fill="#2D435A"/>
<path d="M271.706 36.2899C269.28 29.5344 265.711 26.1587 262.533 24.4878C260.683 23.5147 258.847 25.7223 260.118 27.3831C266.543 35.7768 266.167 48.5142 263.306 60.9663C267.596 52.853 270.935 44.2633 271.706 36.2899Z" fill="#5053EB"/>
<mask id="mask0_227_617" style="mask-type:luminance" maskUnits="userSpaceOnUse" x="185" y="13" width="118" height="150">
<path d="M278.041 13.8504L185.27 31.3975L210.117 162.763L302.888 145.216L278.041 13.8504Z" fill="white"/>
</mask>
<g mask="url(#mask0_227_617)">
<path d="M211.537 100.861C217.313 93.1539 233.966 72.9479 232.368 62.9676C230.774 52.9888 250.022 61.6426 236.844 87.6413C236.844 87.6413 286.353 54.8023 269.563 17.741C268.601 15.615 272.189 14.2602 273.476 16.2058C279.056 24.6286 296.264 46.7368 259.304 96.1551C233.843 130.199 219.953 135.519 221.483 160.526C221.483 160.526 188.625 131.426 211.537 100.861Z" fill="#5053EB"/>
</g>
<path d="M263.051 38.0936C264.387 44.8515 263.601 52.7636 261.773 60.6477C262.091 51.4685 260.468 42.9244 255.266 37.0402C253.879 35.4723 255.554 33.1412 257.469 33.9807C259.254 34.7623 261.189 36.0398 263.051 38.0936Z" fill="#5053EB"/>
<path d="M119.271 36.2899C121.697 29.5344 125.266 26.1587 128.444 24.4878C130.294 23.5147 132.13 25.7223 130.858 27.3831C124.434 35.7768 124.81 48.5142 127.671 60.9663C123.381 52.853 120.042 44.2633 119.271 36.2899Z" fill="#5053EB"/>
<mask id="mask1_227_617" style="mask-type:luminance" maskUnits="userSpaceOnUse" x="88" y="13" width="118" height="150">
<path d="M112.936 13.8504L205.707 31.3975L180.859 162.763L88.0887 145.216L112.936 13.8504Z" fill="white"/>
</mask>
<g mask="url(#mask1_227_617)">
<path d="M179.44 100.861C173.664 93.1539 157.011 72.9479 158.609 62.9676C160.202 52.9888 140.954 61.6426 154.133 87.6413C154.133 87.6413 104.624 54.8023 121.414 17.741C122.376 15.615 118.788 14.2602 117.5 16.2058C111.921 24.6286 94.7125 46.7368 131.673 96.1551C157.134 130.199 171.024 135.519 169.494 160.526C169.494 160.526 202.352 131.426 179.44 100.861Z" fill="#5053EB"/>
</g>
<path d="M127.926 38.0936C126.59 44.8515 127.376 52.7636 129.204 60.6477C128.886 51.4685 130.509 42.9244 135.711 37.0402C137.098 35.4723 135.423 33.1412 133.507 33.9807C131.723 34.7623 129.788 36.0398 127.926 38.0936Z" fill="#5053EB"/>
<path d="M208.926 21.9074C208.926 23.1629 209.944 24.1806 211.2 24.1806H229.834C231.089 24.1806 232.107 25.1984 232.107 26.4539V50.5636C232.107 51.8191 231.089 52.8369 229.834 52.8369H211.2C209.944 52.8369 208.926 53.8547 208.926 55.1102V73.7443C208.926 74.9998 207.909 76.0176 206.653 76.0176H182.543C181.288 76.0176 180.27 74.9998 180.27 73.7443V55.1102C180.27 53.8547 179.252 52.8369 177.997 52.8369H159.363C158.107 52.8369 157.09 51.8191 157.09 50.5636V26.4539C157.09 25.1984 158.107 24.1806 159.363 24.1806H177.997C179.252 24.1806 180.27 23.1629 180.27 21.9074V3.27324C180.27 2.01776 181.288 0.999985 182.543 0.999985H206.653C207.909 0.999985 208.926 2.01776 208.926 3.27324V21.9074Z" fill="#5053EB"/>
</svg>
